# File created by Blade
# Date/Time:  Wed Sep 24 19:53:44 2014
# Frame Rate: 120.000 fps
#------------------------------------------------------
:FULLY-SPECIFIED
:DEGREES
2921
root -6.133817 32.859115 -4.854104 8.943171 10.719724 -0.592987
Spine -12.453713 10.687146 0.846778
Head -18.293369 -5.009761 11.509022
LeftShoulder -14.767154 18.297619 22.024360
LeftArm 57.917493 -81.064649 -87.124266
LeftForeArm -41.700881 -0.000000 115.777104
LeftHand -18.167961 -0.000000 12.265575
LeftHandThumb1 -26.253704 0.000000 33.147579
RightShoulder -20.245445 11.884317 -16.724046
RightArm -12.244518 -11.818687 76.954145
RightForeArm -21.730217 -0.000000 20.388173
RightHand -8.007329 -0.000000 8.946503
RightHandThumb1 -24.326973 -0.000000 -32.862282
LeftUpLeg -5.439939 1.384647 5.057048
LeftLeg -1.633411 -0.000000 0.000000
LeftFoot -7.926155 2.653733 -18.349445
LeftToeBase 11.938088 -0.000000 -0.000000
RightUpLeg -4.690692 -12.690031 -2.327211
RightLeg 2.861417 -0.000000 -0.000000
RightFoot -7.432825 -7.723446 -12.864149
RightToeBase 0.019564 -0.000000 -0.000000
2922
root -6.132715 32.859503 -4.850190 8.934434 10.687271 -0.603356
Spine -12.448460 10.803839 0.828310
Head -18.229112 -5.074662 11.540650
LeftShoulder -14.855512 18.422928 22.042472
LeftArm 57.326010 -80.957742 -86.395602
LeftForeArm -41.564660 -0.000000 115.725283
LeftHand -18.251098 -0.000000 12.164129
LeftHandThumb1 -26.253704 0.000000 33.147579
RightShoulder -20.225829 11.859645 -16.737313
RightArm -12.270737 -11.745803 76.979454
RightForeArm -21.758529 -0.000000 20.358561
RightHand -8.016249 -0.000000 8.960371
RightHandThumb1 -24.326973 -0.000000 -32.862282
LeftUpLeg -5.415596 1.346907 5.071484
LeftLeg -1.639507 -0.000000 0.000000
LeftFoot -7.956092 2.701639 -18.408037
LeftToeBase 11.949853 -0.000000 -0.000000
RightUpLeg -4.673518 -12.732356 -2.318131
RightLeg 2.840711 -0.000000 -0.000000
RightFoot -7.423240 -7.660105 -12.867368
RightToeBase -0.009368 -0.000000 0.000000
2923
root -6.130865 32.860212 -4.846425 8.919029 10.657391 -0.608961
Spine -12.431387 10.944754 0.793739
Head -18.173868 -5.159950 11.602603
LeftShoulder -14.945874 18.610385 22.078325
LeftArm 56.133804 -80.859727 -85.063983
LeftForeArm -41.443919 -0.000000 115.676188
LeftHand -18.494629 -0.000000 12.340495
LeftHandThumb1 -26.253704 0.000000 33.147579
RightShoulder -20.222758 11.873255 -16.748591
RightArm -12.347069 -11.694176 76.992148
RightForeArm -21.752887 -0.000000 20.346422
RightHand -8.052664 -0.000000 8.934686
RightHandThumb1 -24.326973 -0.000000 -32.862282
LeftUpLeg -5.386786 1.303990 5.081061
LeftLeg -1.641328 -0.000000 0.000000
LeftFoot -7.965368 2.740939 -18.386925
LeftToeBase 11.913206 -0.000000 -0.000000
RightUpLeg -4.648629 -12.800839 -2.314206
RightLeg 2.819045 -0.000000 -0.000000
RightFoot -7.411409 -7.585993 -12.899085
RightToeBase -0.022704 -0.000000 0.000000
2924
root -6.128321 32.861048 -4.842031 8.901677 10.625869 -0.610311
Spine -12.405142 11.087509 0.756131
Head -18.145509 -5.276306 11.666182
LeftShoulder -15.070343 18.729310 22.096576
LeftArm 54.679064 -80.735864 -83.411076
LeftForeArm -41.356453 -0.000000 115.597158
LeftHand -18.524824 0.000000 12.212022
LeftHandThumb1 -26.253704 0.000000 33.147579
RightShoulder -20.206810 11.886383 -16.760415
RightArm -12.437847 -11.626062 77.007718
RightForeArm -21.754311 -0.000000 20.343601
RightHand -8.056070 -0.000000 8.904526
RightHandThumb1 -24.326973 -0.000000 -32.862282
LeftUpLeg -5.346811 1.239049 5.086409
LeftLeg -1.655660 -0.000000 0.000000
LeftFoot -7.986641 2.806847 -18.406975
LeftToeBase 11.919452 -0.000000 -0.000000
RightUpLeg -4.615318 -12.852408 -2.318490
RightLeg 2.788870 -0.000000 -0.000000
RightFoot -7.411050 -7.520628 -12.909320
RightToeBase -0.016815 -0.000000 0.000000
2925
root -6.126497 32.862205 -4.838363 8.894475 10.594813 -0.623408
Spine -12.390307 11.256829 0.726624
Head -18.134655 -5.417383 11.728311
LeftShoulder -15.217608 18.919192 22.118033
LeftArm 53.340804 -80.550655 -81.897240
LeftForeArm -41.266286 -0.000000 115.532166
LeftHand -18.525695 -0.000000 12.192302
LeftHandThumb1 -26.253704 0.000000 33.147579
RightShoulder -20.221933 11.857105 -16.770333
RightArm -12.487584 -11.502125 77.009405
RightForeArm -21.824265 0.000000 20.349555
RightHand -8.081811 -0.000000 8.885848
RightHandThumb1 -24.326973 -0.000000 -32.862282
LeftUpLeg -5.332136 1.215882 5.104818
LeftLeg -1.644395 -0.000000 0.000000
LeftFoot -8.004859 2.819752 -18.371022
LeftToeBase 11.775099 -0.000000 -0.000000
RightUpLeg -4.602705 -12.918080 -2.307646
RightLeg 2.772195 -0.000000 -0.000000
RightFoot -7.405344 -7.440439 -12.909228
RightToeBase -0.039805 -0.000000 0.000000
2926
root -6.126333 32.862833 -4.832678 8.874343 10.556436 -0.645075
Spine -12.353765 11.449991 0.703775
Head -18.147062 -5.579444 11.773925
LeftShoulder -15.247418 19.069690 22.121942
LeftArm 51.142102 -80.585768 -79.467504
LeftForeArm -41.255953 -0.000000 115.474348
LeftHand -18.626106 -0.000000 12.175909
LeftHandThumb1 -26.253704 0.000000 33.147579
RightShoulder -20.254064 11.829360 -16.797523
RightArm -12.555209 -11.361841 77.022641
RightForeArm -21.898612 -0.000000 20.374797
RightHand -8.101300 -0.000000 8.837980
RightHandThumb1 -24.326973 -0.000000 -32.862282
LeftUpLeg -5.289639 1.167687 5.139224
LeftLeg -1.663829 -0.000000 0.000000
LeftFoot -8.033901 2.853982 -18.489536
LeftToeBase 12.039302 -0.000000 -0.000000
RightUpLeg -4.572896 -12.980870 -2.287549
RightLeg 2.749372 -0.000000 -0.000000
RightFoot -7.409892 -7.346986 -12.907244
RightToeBase -0.019929 -0.000000 0.000000
2927
root -6.123957 32.864301 -4.829189 8.869805 10.499344 -0.658019
Spine -12.337698 11.666053 0.664974
Head -18.136325 -5.732494 11.838867
LeftShoulder -15.418373 19.231607 22.147109
LeftArm 49.168505 -80.359526 -77.269993
LeftForeArm -41.241909 -0.000000 115.394286
LeftHand -18.550698 0.000000 12.105279
LeftHandThumb1 -26.253704 0.000000 33.147579
RightShoulder -20.258100 11.766398 -16.807313
RightArm -12.602144 -11.236370 77.027844
RightForeArm -21.911047 -0.000000 20.391026
RightHand -8.099891 -0.000000 8.752735
RightHandThumb1 -24.326973 -0.000000 -32.862282
LeftUpLeg -5.270888 1.135874 5.153911
LeftLeg -1.658012 -0.000000 0.000000
LeftFoot -8.060831 2.897865 -18.536040
LeftToeBase 12.071730 -0.000000 -0.000000
RightUpLeg -4.568891 -13.021102 -2.280226
RightLeg 2.734320 -0.000000 -0.000000
RightFoot -7.395732 -7.255920 -12.884830
RightToeBase -0.060063 -0.000000 0.000000
2928
root -6.115043 32.866322 -4.826380 8.890635 10.435818 -0.640378
Spine -12.352294 11.894618 0.602495
Head -18.103934 -5.907475 11.874241
LeftShoulder -15.708058 19.519713 22.086235
LeftArm 47.810404 -80.030217 -75.593063
LeftForeArm -41.135941 -0.000000 115.300675
LeftHand -18.597112 -0.000000 12.109982
LeftHandThumb1 -26.253704 0.000000 33.147579
RightShoulder -20.267221 11.700534 -16.833662
RightArm -12.669928 -11.082921 77.031886
RightForeArm -21.965330 -0.000000 20.428810
RightHand -8.134056 -0.000000 8.745429
RightHandThumb1 -24.326973 -0.000000 -32.862282
LeftUpLeg -5.158205 0.641688 5.197850
LeftLeg -1.880413 -0.000000 0.000000
LeftFoot -8.082291 3.281407 -18.853249
LeftToeBase 12.142266 -0.000000 -0.000000
RightUpLeg -4.589211 -13.078289 -2.318084
RightLeg 2.734707 -0.000000 -0.000000
RightFoot -7.414605 -7.093150 -12.824691
RightToeBase -0.113884 -0.000000 0.000000
